<svg xmlns="http://www.w3.org/2000/svg" width="300" height="46" viewBox="0 0 300 46">
  <g id="allinkl-logo" transform="translate(0 0)">
    <g id="Gruppe_79" data-name="Gruppe 79" transform="translate(0 0)">
      <path id="Pfad_21" data-name="Pfad 21" d="M49.756,11c0-4.635-3.736-5.973-7.572-5.973H39.545c-5.858,0-8.976,1.237-10.142,7.827L26.354,30.19c-.068.343.033.686.55.686h5.617a.738.738,0,0,0,.788-.686l1.336-7.621h6.269L39.578,30.19a.527.527,0,0,0,.515.686h5.584a.762.762,0,0,0,.857-.686l3.052-17.335A12.2,12.2,0,0,0,49.756,11M42.7,12.169a6.118,6.118,0,0,1-.068.686l-.722,4.051H35.639l.72-4.051c.241-1.374.753-1.785,2.124-1.785h2.639c1.131,0,1.577.274,1.577,1.1M66.476,25.794a.557.557,0,0,0-.583-.582H60.344c-1,0-1.407-.274-1.407-1.064A5.281,5.281,0,0,1,59,23.5l3.05-17.442c0-.444-.2-.688-.545-.688H55.923a.918.918,0,0,0-.857.688L52.017,23.5a11.409,11.409,0,0,0-.172,1.78c0,4.635,3.8,5.9,7.676,5.9a35.013,35.013,0,0,0,5.412-.411.81.81,0,0,0,.788-.686l.755-4.185Zm17.884,0a.559.559,0,0,0-.583-.582H78.226c-.994,0-1.4-.274-1.4-1.064a4.856,4.856,0,0,1,.068-.65L79.939,6.057c0-.444-.2-.688-.548-.688H73.807a.918.918,0,0,0-.857.688L69.9,23.5a11.7,11.7,0,0,0-.17,1.78c0,4.635,3.8,5.9,7.673,5.9a35.023,35.023,0,0,0,5.415-.411.812.812,0,0,0,.788-.686L84.36,25.9Zm10.586-7.1a.531.531,0,0,0-.583-.549H87.752a.8.8,0,0,0-.786.65l-.619,3.5c0,.447.238.65.583.65h6.614a.806.806,0,0,0,.786-.65l.616-3.5ZM106.665,5.368h-5.62a.808.808,0,0,0-.786.653L96.011,30.19a.545.545,0,0,0,.548.686h5.617A.772.772,0,0,0,103,30.19l4.249-24.169a.524.524,0,0,0-.583-.653M131.1,12.235c0-5.491-3.7-7.207-9.7-7.207-1.475,0-5.724.31-7.539.584-1.648.239-2.228.653-2.537,2.5L107.453,30.19c0,.444.208.686.548.686h5.617a.878.878,0,0,0,.824-.686l3.323-19.019a26.137,26.137,0,0,1,3.293-.17c1.985,0,2.946.411,2.946,2.3a11.853,11.853,0,0,1-.172,1.717L121.192,30.19c0,.444.172.686.515.686h5.653a.878.878,0,0,0,.824-.686l2.639-15.174a17.421,17.421,0,0,0,.274-2.781m27.2-6.555c0-.206-.134-.312-.411-.312h-6.751a1.1,1.1,0,0,0-.854.554l-8.294,10.811,1.889-10.712c0-.444-.241-.653-.586-.653h-5.584a.852.852,0,0,0-.824.653L132.635,30.19c0,.444.241.686.586.686h5.584a.878.878,0,0,0,.821-.686l1.916-11.121L145.9,30.295c.1.307.205.582.616.582h6.715a.487.487,0,0,0,.548-.48.636.636,0,0,0-.066-.239l-5.28-12.086,9.663-11.944a.834.834,0,0,0,.205-.447m14.391,20.114a.559.559,0,0,0-.583-.582h-5.549c-.994,0-1.407-.274-1.407-1.064a4.5,4.5,0,0,1,.071-.65l3.047-17.442c0-.444-.2-.688-.548-.688h-5.582a.919.919,0,0,0-.859.688L158.23,23.5a11.725,11.725,0,0,0-.172,1.78c0,4.635,3.8,5.9,7.678,5.9a35.039,35.039,0,0,0,5.412-.411.814.814,0,0,0,.788-.686l.753-4.185Zm9.045-.48a.557.557,0,0,0-.58-.582h-4.968a.911.911,0,0,0-.854.686l-.824,4.772c0,.444.238.686.58.686h4.971a.912.912,0,0,0,.852-.686l.824-4.772Zm22.852-19.05c0-.343-.271-.447-.649-.584a15.252,15.252,0,0,0-4.728-.653c-6.477,0-10.9,2.677-12.472,11.329l-.649,3.535a16.43,16.43,0,0,0-.276,2.778c0,5.666,3.8,8.513,8.908,8.513a17.073,17.073,0,0,0,4.867-.617c.581-.17.788-.307.857-.754l.786-4.394c0-.516-.172-.653-.515-.653a49.162,49.162,0,0,1-4.93.31c-1.508,0-2.847-.516-2.847-3.091a12.746,12.746,0,0,1,.208-2.093l.651-3.535c.821-4.531,2.568-5.186,4.418-5.186a43.146,43.146,0,0,1,4.761.31.722.722,0,0,0,.821-.653l.788-4.394Zm21.932,7.207c0-5.938-4.046-8.444-8.806-8.444-5.929,0-10.9,2.644-12.507,11.329l-.654,3.535a16.93,16.93,0,0,0-.271,2.778c0,5.8,3.975,8.513,8.806,8.513,6.373,0,10.964-2.951,12.5-11.291l.651-3.535a14.666,14.666,0,0,0,.276-2.885m-7.1.754a13.222,13.222,0,0,1-.241,2.131l-.652,3.535c-.684,3.672-1.952,5.15-4.347,5.15-1.85,0-2.814-.894-2.814-3.022a13.483,13.483,0,0,1,.241-2.128l.654-3.535c.684-3.675,1.952-5.186,4.35-5.186,1.85,0,2.809.927,2.809,3.055m40.156-1.714c0-6.11-4.317-7.484-12.986-7.484-9.592,0-14.629.34-16.206,9.3l-2.776,15.86a.573.573,0,0,0,.583.686h5.584a.839.839,0,0,0,.788-.686l2.639-15.174c.618-3.5,1.511-3.812,4.8-3.812L238.681,30.19a.549.549,0,0,0,.548.686h5.617a.878.878,0,0,0,.824-.686L248.993,11.2c2.669,0,3.63.31,3.63,2.1a8.662,8.662,0,0,1-.205,1.717L249.781,30.19a.526.526,0,0,0,.515.686h5.584a.911.911,0,0,0,.854-.686L259.272,15.7a18.846,18.846,0,0,0,.307-3.19" transform="translate(40.421 7.741)" fill-rule="evenodd"/>
      <path id="Pfad_22" data-name="Pfad 22" d="M4.363,46A4.181,4.181,0,0,1,0,41.632V40.86L6.157,5.143A6.856,6.856,0,0,1,12.568,0h42.4l-6.68,38.991,11.742,7ZM19.549,30.43a1.443,1.443,0,0,1-1.508-1.509v-.267l2.127-12.327a2.362,2.362,0,0,1,2.213-1.773H37.033L34.295,30.43Z" fill="#e4003a" fill-rule="evenodd"/>
    </g>
  </g>
</svg>
